HIERARCHY
ROOT Hips
{
	OFFSET	0.000000	0.000000	0.000000
	CHANNELS 6 Xposition Yposition Zposition Xrotation Yrotation Zrotation
	JOINT LowerBack
	{
		OFFSET	0.000000	9.040726	-5.556680
		CHANNELS 3 Xrotation Yrotation Zrotation
		JOINT Spine
		{
			OFFSET	0.000000	11.761670	0.000001
			CHANNELS 3 Xrotation Yrotation Zrotation
			JOINT Spine1
			{
				OFFSET	0.000000	16.573260	0.000001
				CHANNELS 3 Xrotation Yrotation Zrotation
				JOINT Neck
				{
					OFFSET	0.000000	27.800300	0.648493
					CHANNELS 3 Xrotation Yrotation Zrotation
					JOINT Head
					{
						OFFSET	0.000000	9.623182	0.000001
						CHANNELS 3 Xrotation Yrotation Zrotation
						End Site
						{
							OFFSET	0.000000	21.384850	0.000001
						}
					}
				}
				JOINT RightShoulder
				{
					OFFSET	-3.421576	25.661800	0.000001
					CHANNELS 3 Xrotation Yrotation Zrotation
					JOINT RightArm
					{
						OFFSET	-16.894030	-4.276955	1.069242
						CHANNELS 3 Xrotation Yrotation Zrotation
						JOINT RightForeArm
						{
							OFFSET	-33.827700	-2.457476	-1.479667
							CHANNELS 3 Xrotation Yrotation Zrotation
							JOINT RightHand
							{
								OFFSET	-28.569920	0.856769	1.055109
								CHANNELS 3 Xrotation Yrotation Zrotation
								End Site
								{
									OFFSET	-17.120570	-0.556302	0.631827
								}
							}
						}
					}
				}
				JOINT LeftShoulder
				{
					OFFSET	3.421576	25.661790	0.000001
					CHANNELS 3 Xrotation Yrotation Zrotation
					JOINT LeftArm
					{
						OFFSET	16.894030	-4.276955	1.069242
						CHANNELS 3 Xrotation Yrotation Zrotation
						JOINT LeftForeArm
						{
							OFFSET	33.827700	-2.457511	-1.479666
							CHANNELS 3 Xrotation Yrotation Zrotation
							JOINT LeftHand
							{
								OFFSET	28.569910	0.856733	1.055110
								CHANNELS 3 Xrotation Yrotation Zrotation
								End Site
								{
									OFFSET	17.120570	-0.556326	0.631826
								}
							}
						}
					}
				}
			}
		}
	}
	JOINT RightUpLeg
	{
		OFFSET	-9.623178	0.485432	0.000000
		CHANNELS 3 Xrotation Yrotation Zrotation
		JOINT RightLeg
		{
			OFFSET	-0.534619	-46.725870	-0.000003
			CHANNELS 3 Xrotation Yrotation Zrotation
			JOINT RightFoot
			{
				OFFSET	-0.000003	-48.452720	-0.438391
				CHANNELS 3 Xrotation Yrotation Zrotation
				JOINT RightToeBase
				{
					OFFSET	-0.000001	-4.260931	13.211600
					CHANNELS 3 Xrotation Yrotation Zrotation
					End Site
					{
						OFFSET	0.000000	0.000001	7.336852
					}
				}
			}
		}
	}
	JOINT LeftUpLeg
	{
		OFFSET	9.623178	0.485432	0.000000
		CHANNELS 3 Xrotation Yrotation Zrotation
		JOINT LeftLeg
		{
			OFFSET	0.534619	-46.725860	-0.000003
			CHANNELS 3 Xrotation Yrotation Zrotation
			JOINT LeftFoot
			{
				OFFSET	0.000003	-48.452720	-0.438397
				CHANNELS 3 Xrotation Yrotation Zrotation
				JOINT LeftToeBase
				{
					OFFSET	0.000001	-4.260932	13.211600
					CHANNELS 3 Xrotation Yrotation Zrotation
					End Site
					{
						OFFSET	0.000000	0.000000	7.336852
					}
				}
			}
		}
	}
}
MOTION
Frames:	7
Frame Time: 0.0200000000
	-17.862740	96.352460	78.612880	-163.020800	80.666240	163.443800	0.000011	0.000000	0.000002	0.771798	0.256033	0.326872	2.567204	0.870338	1.075958	0.000000	-0.000001	0.000000	0.000000	-0.000001	0.000000	-0.057887	0.020310	-0.793029	1.338659	32.890170	69.924560	0.769259	24.032150	-0.180470	0.000000	0.000001	-0.000002	0.097200	0.032046	-1.323684	10.379060	-20.365750	-84.255970	0.006979	-0.233060	0.000178	0.000000	0.000000	0.000000	19.632410	-4.348247	2.924502	30.344770	-0.002801	0.002150	0.513228	0.304557	0.092531	-7.130208	0.000001	0.000000	-20.696210	2.938487	-6.404963	20.097570	-0.003033	0.001589	0.260899	-2.959158	-1.055008	-0.060193	0.000001	0.000000
	-15.054870	96.729400	78.496760	-165.285400	80.159290	165.914700	0.000010	0.000000	0.000002	0.647805	0.174947	0.207618	2.156977	0.592280	0.684189	0.000000	0.000004	0.000000	0.000000	0.000014	0.000000	-0.055848	0.019582	-0.765063	2.607420	31.645240	70.989040	0.738377	23.174730	-0.167529	-0.000004	-0.000001	0.000007	0.090501	0.029931	-1.232803	9.278155	-21.505570	-84.512710	0.003546	-0.118387	0.000085	-0.000002	0.000002	0.000001	14.384920	-7.890242	1.420098	39.787490	-0.002557	0.002665	0.442258	0.323636	0.097929	-3.056300	0.000003	0.000000	-20.321690	2.980075	-6.514425	22.296820	-0.007265	0.003973	-1.629360	-3.608937	-1.295801	-0.016097	0.000000	0.000000
	-12.358890	97.226690	78.535310	-167.130700	79.691370	167.888100	0.000010	-0.000001	0.000002	0.549015	0.095044	0.111398	1.829332	0.321066	0.367632	0.000000	0.000001	0.000000	0.000000	0.000001	0.000000	-0.051856	0.018154	-0.710295	4.081238	30.191710	72.101520	0.725454	22.812500	-0.162225	-0.000002	0.000001	0.000002	0.081599	0.027072	-1.111959	7.399693	-23.244170	-84.399800	0.001609	-0.053809	0.000035	0.000002	-0.000001	0.000000	8.612134	-10.672720	0.196521	48.706360	-0.001586	0.002185	0.154700	0.043015	0.005652	-0.590507	-0.000003	0.000001	-19.498460	2.907434	-6.426413	23.484740	-0.011842	0.006643	-2.921799	-4.284565	-1.572920	-0.001603	0.000001	-0.000001
	-9.518366	97.810270	78.709640	-168.347000	79.181660	169.198700	0.000008	-0.000005	0.000002	0.482676	0.020026	0.038125	1.608843	0.068175	0.126312	0.000000	-0.000001	0.000000	0.000000	-0.000001	0.000000	-0.049311	0.017254	-0.675320	5.506429	28.842810	73.390170	0.700970	22.120820	-0.152396	0.000001	0.000001	0.000002	0.071490	0.023813	-0.974655	4.683578	-25.610810	-83.865590	0.000227	-0.007657	0.000010	0.000002	0.000000	0.000000	3.589402	-11.920920	-0.634929	55.425030	-0.001050	0.001891	-0.073465	-0.186446	-0.069228	-0.000004	-0.000005	0.000000	-17.880550	2.748412	-6.206041	23.436370	-0.013891	0.007722	-4.060402	-4.941419	-1.884436	-0.001098	0.000002	-0.000001
	-6.600797	98.387780	78.789180	-168.798300	78.842560	169.748100	0.000009	-0.000010	0.000001	0.453778	-0.047647	-0.014973	1.512479	-0.159143	-0.048524	0.000000	0.000001	0.000000	0.000000	0.000001	0.000000	-0.045839	0.016020	-0.627637	6.551246	27.928750	74.592800	0.647028	20.572170	-0.131695	0.000000	0.000000	0.000000	0.060962	0.020385	-0.831392	1.366666	-28.478030	-83.288850	0.005021	-0.167389	0.000123	0.000002	-0.000002	-0.000001	0.027592	-12.368410	-1.453479	59.250280	-0.000865	0.001967	-0.145728	-0.290942	-0.100944	0.000008	0.000000	0.000000	-15.614020	2.568505	-6.052030	22.424300	-0.012770	0.006822	-5.188777	-5.140714	-2.028188	-0.000305	-0.000001	0.000001
	-3.918710	98.903760	78.624240	-168.443200	78.938140	169.538500	0.000011	-0.000001	0.000002	0.464122	-0.106554	-0.052009	1.546665	-0.356687	-0.170053	0.000000	0.000000	0.000000	0.000000	0.000000	0.000000	-0.042090	0.014691	-0.576151	7.049023	27.563280	75.487810	0.566868	18.210240	-0.103452	-0.000002	-0.000002	0.000004	0.050453	0.016949	-0.688449	-2.225753	-31.579950	-83.290020	0.011689	-0.389958	0.000298	0.000000	0.000002	0.000001	-2.654637	-12.635590	-2.613287	60.547340	-0.000742	0.001738	-0.137152	-0.368115	-0.126251	0.000004	0.000000	0.000000	-13.082930	2.392430	-6.107910	20.776090	-0.011792	0.005859	-6.004231	-4.747509	-1.890700	-0.000005	0.000000	0.000001
	-1.513604	99.344510	78.415390	-167.277200	79.371060	168.589000	0.000008	0.000000	0.000002	0.512145	-0.155858	-0.077202	1.706320	-0.522118	-0.251934	0.000000	0.000000	0.000000	0.000000	0.000000	0.000000	-0.038461	0.013408	-0.526407	7.101067	27.629630	76.076720	0.479617	15.562310	-0.076286	0.000002	0.000002	-0.000004	0.040208	0.013567	-0.548903	-5.725979	-34.485450	-83.996190	0.011937	-0.398345	0.000325	-0.000002	-0.000002	-0.000001	-5.416182	-12.881140	-4.104408	60.464200	-0.000641	0.001501	-0.085032	-0.346520	-0.124427	0.000007	0.000001	0.000002	-10.350440	2.191634	-6.248844	18.544530	-0.011583	0.005271	-6.468174	-4.300394	-1.709025	-0.000198	0.000002	0.000000
